name C:\Users\u0101727\Documents\MyRepositories\upper-imu-dc\Results\main_tracking\Case_20\kinematics.mot
datacolumns 10
datarows 56
range 2.07000000 2.62000000
endheader 
time	clav_prot	clav_elev	scapula_abduction	scapula_elevation	scapula_upward_rot	scapula_winging	plane_elv	shoulder_elv	axial_rot	
          2.07000000	        -36.22341513	         14.70786012	         -2.05764877	          1.52090293	         65.45758137	        -10.30232914	         67.80326190	         71.60660915	        -14.36218080	
          2.08000000	        -36.54565147	         14.79277860	         -2.26962002	          1.55846640	         65.89947130	        -10.44757167	         67.70051742	         71.80908286	        -14.07744458	
          2.09000000	        -36.86153498	         14.86778848	         -2.46985113	          1.59088959	         66.33746016	        -10.59012507	         67.59555592	         72.00508378	        -13.80329352	
          2.10000000	        -37.16904497	         14.92940980	         -2.65359027	          1.61601380	         66.77151494	        -10.72850881	         67.48395435	         72.19418445	        -13.55710378	
          2.11000000	        -37.46678806	         14.97480083	         -2.81730866	          1.63206447	         67.20177338	        -10.86152987	         67.36250597	         72.37622733	        -13.35244956	
          2.12000000	        -37.75371136	         15.00139704	         -2.95844386	          1.63741865	         67.62810458	        -10.98815036	         67.22880164	         72.55164161	        -13.20175170	
          2.13000000	        -38.02907845	         15.00711978	         -3.07553811	          1.63073603	         68.04998863	        -11.10752158	         67.08122058	         72.72155062	        -13.11610008	
          2.14000000	        -38.29286659	         14.99127288	         -3.16900132	          1.61152568	         68.46681139	        -11.21928594	         66.91956881	         72.88760044	        -13.10136009	
          2.15000000	        -38.54639173	         14.95571277	         -3.24216429	          1.58088754	         68.87837913	        -11.32403487	         66.74602613	         73.05160744	        -13.15249197	
          2.16000000	        -38.79278179	         14.90565970	         -3.30198677	          1.54203188	         69.28534596	        -11.42368512	         66.56577695	         73.21519386	        -13.24925962	
          2.17000000	        -39.03695132	         14.84962107	         -3.35884210	          1.50024360	         69.68931079	        -11.52153590	         66.38677546	         73.37955252	        -13.35612056	
          2.18000000	        -39.28491592	         14.79820268	         -3.42511999	          1.46214587	         70.09249458	        -11.62186796	         66.21841659	         73.54540288	        -13.42762441	
          2.19000000	        -39.54258619	         14.76205374	         -3.51290694	          1.43441248	         70.49711996	        -11.72913689	         66.06938387	         73.71309545	        -13.41823164	
          2.20000000	        -39.81447480	         14.74964545	         -3.63150731	          1.42236734	         70.90479248	        -11.84702741	         65.94542627	         73.88274069	        -13.29299507	
          2.21000000	        -40.10280496	         14.76565888	         -3.78566739	          1.42896301	         71.31617300	        -11.97771071	         65.84790401	         74.05425631	        -13.03505164	
          2.22000000	        -40.40726603	         14.81038115	         -3.97496027	          1.45439502	         71.73103175	        -12.12151605	         65.77351955	         74.22732462	        -12.64793563	
          2.23000000	        -40.72534275	         14.88004047	         -4.19425084	          1.49631267	         72.14856711	        -12.27702010	         65.71508515	         74.40132937	        -12.15333371	
          2.24000000	        -41.05296479	         14.96776489	         -4.43484856	          1.55042842	         72.56779265	        -12.44141919	         65.66285954	         74.57534568	        -11.58620349	
          2.25000000	        -41.38521191	         15.06482349	         -4.68591206	          1.61130914	         72.98783342	        -12.61101536	         65.60596931	         74.74821557	        -10.98914355	
          2.26000000	        -41.71690123	         15.16188351	         -4.93578739	          1.67317666	         73.40805800	        -12.78168370	         65.53359424	         74.91869702	        -10.40720885	
          2.27000000	        -42.04299939	         15.25010434	         -5.17312277	          1.73059963	         73.82805235	        -12.94925365	         65.43580287	         75.08564759	         -9.88362895	
          2.28000000	        -42.35886713	         15.32194298	         -5.38769932	          1.77899321	         74.24747291	        -13.10978131	         65.30406519	         75.24820871	         -9.45654573	
          2.29000000	        -42.66037886	         15.37161763	         -5.57098353	          1.81489168	         74.66583083	        -13.25972325	         65.13153960	         75.40596627	         -9.15673676	
          2.30000000	        -42.94400925	         15.39529420	         -5.71650728	          1.83603695	         75.08228875	        -13.39606831	         64.91327681	         75.55905488	         -9.00604358	
          2.31000000	        -43.20697337	         15.39111288	         -5.82020234	          1.84136082	         75.49553760	        -13.51648972	         64.64647004	         75.70818560	         -9.01617576	
          2.32000000	        -43.44747615	         15.35916093	         -5.88078842	          1.83093272	         75.90379197	        -13.61956192	         64.33084415	         75.85459123	         -9.18765550	
          2.33000000	        -43.66513130	         15.30148876	         -5.90032035	          1.80593773	         76.30494353	        -13.70508657	         63.96924798	         75.99987082	         -9.50866279	
          2.34000000	        -43.86153669	         15.22218683	         -5.88487988	          1.76870113	         76.69687711	        -13.77451660	         63.56838664	         76.14572138	         -9.95390909	
          2.35000000	        -44.04081294	         15.12739611	         -5.84512867	          1.72268615	         77.07785176	        -13.83133926	         63.13940034	         76.29360964	        -10.48440674	
          2.36000000	        -44.20983914	         15.02509528	         -5.79632851	          1.67237359	         77.44682454	        -13.88122502	         62.69787462	         76.44445395	        -11.04914635	
          2.37000000	        -44.37793107	         14.92449072	         -5.75735910	          1.62292577	         77.80370438	        -13.93173922	         62.26282739	         76.59826958	        -11.58945536	
          2.38000000	        -44.55551535	         14.83475984	         -5.74837029	          1.57945130	         78.14895826	        -13.99135290	         61.85444827	         76.75436374	        -12.04639542	
          2.39000000	        -44.75226510	         14.76358163	         -5.78764854	          1.54614613	         78.48300542	        -14.06805844	         61.49106696	         76.91174479	        -12.37013491	
          2.40000000	        -44.97529554	         14.71581240	         -5.88831165	          1.52555518	         78.80603496	        -14.16794537	         61.18602722	         77.06914644	        -12.52834561	
          2.41000000	        -45.22783567	         14.69275462	         -6.05609071	          1.51817306	         79.11773569	        -14.29414917	         60.94565730	         77.22535125	        -12.51098389	
          2.42000000	        -45.50889694	         14.69227840	         -6.28880249	          1.52255574	         79.41737561	        -14.44650996	         60.76883422	         77.37935242	        -12.32984927	
          2.43000000	        -45.81386251	         14.70963277	         -6.57743577	          1.53583239	         79.70408932	        -14.62191302	         60.64802397	         77.53042378	        -12.01414572	
          2.44000000	        -46.13568524	         14.73863281	         -6.90831517	          1.55442414	         79.97724720	        -14.81511019	         60.57126425	         77.67810461	        -11.60397395	
          2.45000000	        -46.46628392	         14.77288446	         -7.26564854	          1.57476447	         80.23675780	        -15.01974745	         60.52446360	         77.82214598	        -11.14353232	
          2.46000000	        -46.79780925	         14.80678258	         -7.63387638	          1.59386476	         80.48322198	        -15.22936154	         60.49351938	         77.96245189	        -10.67524684	
          2.47000000	        -47.12358193	         14.83611880	         -7.99945079	          1.60963163	         80.71791754	        -15.43817953	         60.46595541	         78.09904208	        -10.23543502	
          2.48000000	        -47.43862944	         14.85824953	         -8.35188679	          1.62091361	         80.94264202	        -15.64163309	         60.43196892	         78.23204940	         -9.85164483	
          2.49000000	        -47.73987460	         14.87191236	         -8.68415116	          1.62734004	         81.15949151	        -15.83659612	         60.38493284	         78.36172539	         -9.54145058	
          2.50000000	        -48.02605066	         14.87684752	         -8.99253474	          1.62905527	         81.37062857	        -16.02138873	         60.32143116	         78.48844717	         -9.31243948	
          2.51000000	        -48.29742089	         14.87340204	         -9.27617852	          1.62646171	         81.57807619	        -16.19560860	         60.24090168	         78.61272219	         -9.16318089	
          2.52000000	        -48.55537720	         14.86224702	         -9.53640977	          1.62005268	         81.78356054	        -16.35985457	         60.14497781	         78.73518439	         -9.08497396	
          2.53000000	        -48.80195886	         14.84421723	         -9.77597679	          1.61033435	         81.98838362	        -16.51537791	         60.03663896	         78.85660666	         -9.06410243	
          2.54000000	        -49.03939885	         14.82024786	         -9.99831486	          1.59781605	         82.19337152	        -16.66373729	         59.91935160	         78.97788382	         -9.08436035	
          2.55000000	        -49.26981671	         14.79138409	        -10.20700214	          1.58304667	         82.39892993	        -16.80654825	         59.79639923	         79.09994536	         -9.12942757	
          2.56000000	        -49.49505253	         14.75879923	        -10.40541393	          1.56665052	         82.60515212	        -16.94532971	         59.67046826	         79.22364268	         -9.18478932	
          2.57000000	        -49.71663208	         14.72382345	        -10.59657832	          1.54936219	         82.81195022	        -17.08145016	         59.54349258	         79.34962973	         -9.23906395	
          2.58000000	        -49.93582097	         14.68800386	        -10.78318681	          1.53207532	         83.01918757	        -17.21615102	         59.41668238	         79.47824989	         -9.28464825	
          2.59000000	        -50.15371580	         14.65319335	        -10.96769759	          1.51590441	         83.22677932	        -17.35061267	         59.29065207	         79.60945858	         -9.31767307	
          2.60000000	        -50.37131510	         14.62160055	        -11.15243455	          1.50221680	         83.43473749	        -17.48601020	         59.16557503	         79.74281100	         -9.33740624	
          2.61000000	        -50.58953363	         14.59569762	        -11.33959435	          1.49256917	         83.64315532	        -17.62351111	         59.04133250	         79.87753038	         -9.34533679	
          2.62000000	        -50.80916110	         14.57792657	        -11.53113026	          1.48851148	         83.85215088	        -17.76419834	         58.91765592	         80.01264369	         -9.34419054	
